HIERARCHY
ROOT Hips
{
	OFFSET 0.000000 0.000000 0.000000 
	CHANNELS 6 Xposition Yposition Zposition Yrotation Xrotation Zrotation
	JOINT Spine
	{
		OFFSET 0.000000 0.072080 0.012321 
		CHANNELS 3 Xrotation Yrotation Zrotation
		JOINT Spine1
		{
			OFFSET 0.000000 0.126984 -0.001294 
			CHANNELS 3 Xrotation Yrotation Zrotation
			JOINT Spine2
			{
				OFFSET 0.000000 0.106559 -0.010096 
				CHANNELS 3 Xrotation Yrotation Zrotation
				JOINT Neck
				{
					OFFSET 0.000000 0.108417 -0.034017 
					CHANNELS 3 Xrotation Yrotation Zrotation
					JOINT Neck1
					{
						OFFSET 0.000000 0.033906 0.007241 
						CHANNELS 3 Xrotation Yrotation Zrotation
						JOINT Head
						{
							OFFSET 0.000000 0.031458 0.006707 
							CHANNELS 3 Xrotation Yrotation Zrotation
							End Site
							{
								OFFSET 0.000000 0.179920 0.000962 
							}
						}
					}
				}
				JOINT LeftShoulder
				{
					OFFSET 0.048002 0.079586 -0.029634 
					CHANNELS 3 Zrotation Xrotation Yrotation
					JOINT LeftArm
					{
						OFFSET 0.096243 -0.008695 -0.014012 
						CHANNELS 3 Zrotation Xrotation Yrotation
						JOINT LeftForeArm
						{
							OFFSET 0.216305 0.000000 0.000000 
							CHANNELS 3 Xrotation Zrotation Yrotation
							JOINT LeftHand
							{
								OFFSET 0.217764 0.000000 0.000000 
								CHANNELS 3 Zrotation Yrotation Xrotation
								JOINT LeftHandThumb1
								{
									OFFSET 0.018582 -0.007835 0.020476 
									CHANNELS 3 Zrotation Xrotation Yrotation
									JOINT LeftHandThumb2
									{
										OFFSET 0.026269 -0.007835 0.022186 
										CHANNELS 3 Zrotation Xrotation Yrotation
										JOINT LeftHandThumb3
										{
											OFFSET 0.035170 -0.010504 0.017018 
											CHANNELS 3 Zrotation Xrotation Yrotation
											End Site
											{
												OFFSET 0.020312 -0.007813 0.007813 
											}
										}
									}
								}
								JOINT LeftHandMiddle1
								{
									OFFSET 0.081749 0.004803 0.003358 
									CHANNELS 3 Zrotation Xrotation Yrotation
									JOINT LeftHandMiddle2
									{
										OFFSET 0.045251 0.000000 0.000000 
										CHANNELS 3 Zrotation Xrotation Yrotation
										JOINT LeftHandMiddle3
										{
											OFFSET 0.029009 0.000000 0.000000 
											CHANNELS 3 Zrotation Xrotation Yrotation
											End Site
											{
												OFFSET 0.017969 0.000000 0.000000 
											}
										}
									}
								}
								JOINT LeftHandIndex1
								{
									OFFSET 0.081207 0.004803 0.021137 
									CHANNELS 3 Zrotation Xrotation Yrotation
									JOINT LeftHandIndex2
									{
										OFFSET 0.043354 0.000000 0.000000 
										CHANNELS 3 Zrotation Xrotation Yrotation
										JOINT LeftHandIndex3
										{
											OFFSET 0.026493 0.000000 0.000000 
											CHANNELS 3 Zrotation Xrotation Yrotation
											End Site
											{
												OFFSET 0.019531 0.000000 0.000000 
											}
										}
									}
								}
								JOINT LeftHandRing1
								{
									OFFSET 0.080666 0.002509 -0.014652 
									CHANNELS 3 Zrotation Xrotation Yrotation
									JOINT LeftHandRing2
									{
										OFFSET 0.042541 0.000000 0.000000 
										CHANNELS 3 Zrotation Xrotation Yrotation
										JOINT LeftHandRing3
										{
											OFFSET 0.029009 0.000000 0.000000 
											CHANNELS 3 Zrotation Xrotation Yrotation
											End Site
											{
												OFFSET 0.015625 0.000000 0.000000 
											}
										}
									}
								}
								JOINT LeftHandPinky1
								{
									OFFSET 0.078227 -0.000612 -0.030993 
									CHANNELS 3 Zrotation Xrotation Yrotation
									JOINT LeftHandPinky2
									{
										OFFSET 0.028721 0.000000 0.000000 
										CHANNELS 3 Zrotation Xrotation Yrotation
										JOINT LeftHandPinky3
										{
											OFFSET 0.021963 0.000000 0.000000 
											CHANNELS 3 Zrotation Xrotation Yrotation
											End Site
											{
												OFFSET 0.022656 0.000000 0.000000 
											}
										}
									}
								}
							}
						}
					}
				}
				JOINT RightShoulder
				{
					OFFSET -0.047970 0.079586 -0.029634 
					CHANNELS 3 Zrotation Xrotation Yrotation
					JOINT RightArm
					{
						OFFSET -0.096274 -0.008695 -0.014012 
						CHANNELS 3 Zrotation Xrotation Yrotation
						JOINT RightForeArm
						{
							OFFSET -0.216305 0.000000 0.000000 
							CHANNELS 3 Xrotation Zrotation Yrotation
							JOINT RightHand
							{
								OFFSET -0.217764 0.000000 0.000000 
								CHANNELS 3 Zrotation Yrotation Xrotation
								JOINT RightHandThumb1
								{
									OFFSET -0.019670 -0.007318 0.019638 
									CHANNELS 3 Zrotation Xrotation Yrotation
									JOINT RightHandThumb2
									{
										OFFSET -0.025498 -0.008492 0.023179 
										CHANNELS 3 Zrotation Xrotation Yrotation
										JOINT RightHandThumb3
										{
											OFFSET -0.034504 -0.010705 0.016680 
											CHANNELS 3 Zrotation Xrotation Yrotation
											End Site
											{
												OFFSET -0.020312 -0.007813 0.007813 
											}
										}
									}
								}
								JOINT RightHandIndex1
								{
									OFFSET -0.081770 0.003825 0.021187 
									CHANNELS 3 Zrotation Xrotation Yrotation
									JOINT RightHandIndex2
									{
										OFFSET -0.042006 0.000000 0.000000 
										CHANNELS 3 Zrotation Xrotation Yrotation
										JOINT RightHandIndex3
										{
											OFFSET -0.026449 0.000000 0.000000 
											CHANNELS 3 Zrotation Xrotation Yrotation
											End Site
											{
												OFFSET -0.020312 0.000000 0.000000 
											}
										}
									}
								}
								JOINT RightHandMiddle1
								{
									OFFSET -0.084059 0.003825 0.003342 
									CHANNELS 3 Zrotation Xrotation Yrotation
									JOINT RightHandMiddle2
									{
										OFFSET -0.043881 0.000000 0.000000 
										CHANNELS 3 Zrotation Xrotation Yrotation
										JOINT RightHandMiddle3
										{
											OFFSET -0.029191 0.000000 0.000000 
											CHANNELS 3 Zrotation Xrotation Yrotation
											End Site
											{
												OFFSET -0.017969 0.000000 0.000000 
											}
										}
									}
								}
								JOINT RightHandRing1
								{
									OFFSET -0.081798 0.003030 -0.015127 
									CHANNELS 3 Zrotation Xrotation Yrotation
									JOINT RightHandRing2
									{
										OFFSET -0.042198 0.000000 0.000000 
										CHANNELS 3 Zrotation Xrotation Yrotation
										JOINT RightHandRing3
										{
											OFFSET -0.026497 0.000000 0.000000 
											CHANNELS 3 Zrotation Xrotation Yrotation
											End Site
											{
												OFFSET -0.017188 0.000000 0.000000 
											}
										}
									}
								}
								JOINT RightHandPinky1
								{
									OFFSET -0.077902 -0.000930 -0.030891 
									CHANNELS 3 Zrotation Xrotation Yrotation
									JOINT RightHandPinky2
									{
										OFFSET -0.028538 0.000000 0.000000 
										CHANNELS 3 Zrotation Xrotation Yrotation
										JOINT RightHandPinky3
										{
											OFFSET -0.021734 0.000000 0.000000 
											CHANNELS 3 Zrotation Xrotation Yrotation
											End Site
											{
												OFFSET -0.022656 0.000000 0.000000 
											}
										}
									}
								}
							}
						}
					}
				}
			}
		}
	}
	JOINT LeftUpLeg
	{
		OFFSET 0.075264 -0.025573 0.000000 
		CHANNELS 3 Xrotation Yrotation Zrotation
		JOINT LeftLeg
		{
			OFFSET 0.000000 -0.326016 -0.013516 
			CHANNELS 3 Xrotation Yrotation Zrotation
			JOINT LeftFoot
			{
				OFFSET 0.000098 -0.306172 -0.006623 
				CHANNELS 3 Xrotation Yrotation Zrotation
				JOINT LeftToeBase
				{
					OFFSET -0.001432 -0.095259 0.064705 
					CHANNELS 3 Xrotation Yrotation Zrotation
					End Site
					{
						OFFSET 0.000000 0.000000 0.079438 
					}
				}
			}
		}
	}
	JOINT RightUpLeg
	{
		OFFSET -0.075264 -0.025573 0.000000 
		CHANNELS 3 Xrotation Yrotation Zrotation
		JOINT RightLeg
		{
			OFFSET 0.000000 -0.326016 -0.013516 
			CHANNELS 3 Xrotation Yrotation Zrotation
			JOINT RightFoot
			{
				OFFSET 0.000098 -0.306172 -0.006623 
				CHANNELS 3 Xrotation Yrotation Zrotation
				JOINT RightToeBase
				{
					OFFSET -0.001432 -0.095259 0.064705 
					CHANNELS 3 Xrotation Yrotation Zrotation
					End Site
					{
						OFFSET 0.000025 0.000000 0.079438 
					}
				}
			}
		}
	}
}
MOTION
Frames: 5
Frame Time: 0.033333
0.026771 0.648737 0.597270 -23.893900 22.174500 -7.357200 6.271300 3.357200 -0.328900 12.615000 6.642600 -1.269600 12.615100 6.642600 -1.269600 -9.389700 -1.991100 -0.677500 -0.000000 0.000000 -0.000000 -25.032900 7.519100 -0.685100 -7.963300 1.564800 -2.559400 -63.061001 -7.978500 -3.360900 3.866100 4.331500 -74.368401 9.957800 -12.728800 16.706499 -10.597800 9.311100 5.378700 0.811000 -2.650900 -6.406300 3.650800 -3.261600 -4.251000 -43.065300 3.819700 -3.862800 -48.728401 3.609800 -8.745600 -0.000000 0.000000 -0.000000 -34.909801 3.665400 -12.624700 -49.124802 2.584300 -7.750400 -0.000000 0.000000 0.000000 -54.653999 -1.542900 -0.446200 -55.332699 4.779300 -8.313700 0.000000 -0.000000 0.000000 -59.420300 -5.440200 1.452000 -63.278500 8.288200 -9.024300 -0.000000 0.000000 -0.000000 8.288900 2.493100 9.455900 49.703300 -8.098300 5.518200 -6.091800 -3.733100 69.420799 12.974900 6.556400 4.694800 9.229100 2.686600 -8.859200 -0.538500 -0.268100 -0.883700 -3.141100 -3.030300 4.239200 34.786900 2.776900 3.537700 52.594299 2.129200 6.350600 0.000000 -0.000000 0.000000 41.415401 2.111400 5.187100 56.401501 3.786300 7.782000 0.000000 -0.000000 -0.000000 49.985500 0.308500 2.372300 60.913200 5.695400 8.879900 0.000000 -0.000000 -0.000000 57.608200 -2.484200 1.392100 66.544899 10.065000 10.783100 0.000000 0.000000 -0.000000 -72.546303 -4.060200 6.609000 58.115101 -22.411699 5.974900 -7.748200 -2.904300 -3.549100 -2.319100 -3.217000 0.803000 -43.195801 -8.179900 -5.686900 68.567001 -20.229900 -4.568700 -14.496600 -4.050200 23.286600 -15.756000 4.501600 2.778400 
0.023121 0.665984 0.604891 -25.709000 20.345800 -8.029500 6.264200 3.498700 -0.322700 12.614000 6.889000 -1.376100 12.614000 6.889000 -1.376100 -8.769800 -2.039300 0.084300 -0.000000 0.000000 -0.000000 -24.084999 8.886900 -0.407900 -7.939400 1.535300 -2.172100 -62.158001 -8.837600 -2.279400 3.525300 3.979000 -73.565697 10.714900 -12.117600 16.362700 -10.656600 9.661900 5.931300 0.775600 -2.793800 -6.943300 3.650800 -3.261600 -4.251000 -40.679798 3.441500 -3.173200 -46.647598 3.296000 -8.421100 0.000000 -0.000000 -0.000000 -32.214699 3.224600 -12.495500 -46.619801 2.252800 -7.283900 0.000000 -0.000000 0.000000 -52.670300 -1.777100 0.251300 -53.499298 4.515200 -8.158900 -0.000000 -0.000000 0.000000 -57.313702 -5.516100 2.276300 -61.347500 7.984400 -9.057600 0.000000 -0.000000 -0.000000 8.510500 2.546000 9.491900 49.372398 -8.806800 5.525300 -5.749200 -3.465200 67.726402 13.927700 6.708300 5.399100 9.012400 2.257100 -9.082900 -0.538400 -0.169100 -1.198700 -3.141100 -3.030300 4.239200 32.278702 2.387100 3.457100 49.862598 1.836000 5.940900 0.000000 -0.000000 0.000000 39.033401 1.807000 4.895300 54.396301 3.517400 7.560300 -0.000000 0.000000 -0.000000 47.641499 0.225700 1.899300 59.062500 5.411500 8.741900 -0.000000 -0.000000 -0.000000 54.864899 -2.459700 0.748100 64.478302 9.676900 10.805800 0.000000 0.000000 0.000000 -66.889297 -3.719200 8.539500 53.443901 -22.173300 5.683300 -7.220700 -2.536000 -4.077100 -2.319100 -3.217000 0.802900 -36.448601 -9.220900 -5.230900 59.343601 -19.530701 -3.311300 -14.704500 -3.982000 22.872000 -14.887100 4.439600 1.765200 
0.019698 0.679770 0.611580 -27.450100 18.081301 -8.345900 6.206400 3.631700 -0.336000 12.510200 7.137700 -1.486800 12.510200 7.137700 -1.486700 -8.227400 -2.057600 0.796300 -0.000000 0.000000 -0.000000 -22.511999 10.306400 -0.390200 -7.862200 1.508000 -1.837800 -61.616501 -9.544200 -1.578100 3.182700 3.536300 -73.019096 11.342300 -11.024800 15.899700 -10.722900 10.012200 6.483700 0.738900 -2.936200 -7.480700 3.650800 -3.261600 -4.251000 -38.292599 3.077100 -2.468700 -44.565601 2.994200 -8.085600 -0.000000 -0.000000 -0.000000 -29.517799 2.802100 -12.346900 -44.112598 1.942400 -6.803500 0.000000 0.000000 0.000000 -50.683601 -1.998700 0.954500 -51.665699 4.256100 -7.995800 0.000000 -0.000000 -0.000000 -55.206200 -5.572600 3.103500 -59.417900 7.679800 -9.080600 -0.000000 0.000000 0.000000 8.876400 2.606200 9.485400 48.903301 -9.442300 5.324900 -5.299300 -2.905600 65.887398 13.892300 6.826200 5.630700 8.793100 1.828700 -9.306200 -0.537700 -0.070200 -1.513500 -3.141100 -3.030300 4.239300 29.769100 2.011200 3.361500 47.129398 1.562600 5.517700 -0.000000 0.000000 0.000000 36.650101 1.515600 4.590900 52.390800 3.256400 7.329400 -0.000000 0.000000 -0.000000 45.297298 0.160400 1.422000 57.212200 5.131600 8.594800 -0.000000 0.000000 0.000000 52.122501 -2.402800 0.103600 62.414101 9.287900 10.814200 -0.000000 -0.000000 -0.000000 -61.355598 -2.947900 10.294300 49.393600 -21.877701 5.269400 -6.771900 -2.212600 -4.474200 -2.319100 -3.217000 0.803000 -30.059200 -10.340700 -4.813000 51.204399 -19.530701 -2.690600 -14.676900 -3.864100 22.237200 -13.247200 4.191700 1.014100 
0.016773 0.690457 0.617703 -29.051100 15.663200 -8.391700 6.052700 3.766800 -0.298000 12.209900 7.410800 -1.470800 12.209900 7.410800 -1.470800 -7.875400 -2.031300 0.952800 -0.000000 0.000000 -0.000000 -20.334801 11.366800 -0.496800 -8.056400 1.488000 -1.471600 -61.264000 -9.855700 -1.691200 3.148600 3.559800 -71.923798 11.781300 -10.280000 16.106300 -10.796600 10.362200 7.036400 0.701000 -3.078000 -8.018300 3.650800 -3.261600 -4.251000 -35.903900 2.726900 -1.750100 -42.482399 2.705600 -7.739600 -0.000000 0.000000 0.000000 -26.818899 2.398600 -12.180100 -41.603298 1.653600 -6.310200 0.000000 -0.000000 -0.000000 -48.694302 -2.207400 1.663000 -49.832100 4.002500 -7.824600 0.000000 -0.000000 0.000000 -53.098400 -5.609500 3.932700 -57.490002 7.374600 -9.093300 -0.000000 0.000000 0.000000 8.541800 2.592000 9.236900 49.171398 -10.250700 4.781600 -4.390000 -2.002500 64.022003 12.748300 7.744700 6.083500 8.571300 1.401200 -9.529200 -0.536600 0.028600 -1.828500 -3.141100 -3.030300 4.239200 27.257999 1.650100 3.251600 44.394600 1.308900 5.082000 -0.000000 0.000000 -0.000000 34.265598 1.237800 4.274500 50.384602 3.003600 7.089400 0.000000 0.000000 -0.000000 42.952999 0.112900 0.941000 55.362000 4.856200 8.438700 0.000000 -0.000000 0.000000 49.381599 -2.313100 -0.539700 60.352402 8.898500 10.808400 -0.000000 -0.000000 0.000000 -56.204899 -1.980100 11.694400 46.050301 -21.470400 4.807100 -6.471500 -1.922700 -4.740100 -2.319100 -3.217000 0.803000 -23.747801 -11.556400 -4.535400 43.358898 -20.035999 -2.226300 -14.781100 -3.777300 21.562000 -11.557400 3.855700 0.719900 
0.013749 0.698254 0.622990 -30.805401 13.144100 -8.038700 5.866200 3.871500 -0.352800 11.846200 7.626100 -1.607200 11.846200 7.626100 -1.607200 -7.370700 -2.074000 1.167000 -0.000000 0.000000 -0.000000 -18.311800 12.342700 -0.623000 -8.095700 1.473600 -1.220900 -60.937500 -10.021900 -2.278700 3.243300 3.858500 -70.329697 11.991100 -9.803400 16.717300 -10.877800 10.711700 7.589300 0.661900 -3.219200 -8.555900 3.650800 -3.261600 -4.251000 -33.513599 2.391700 -1.018000 -40.397999 2.429800 -7.383300 -0.000000 -0.000000 -0.000000 -24.117800 2.015100 -11.995700 -39.091900 1.386900 -5.804900 0.000000 0.000000 -0.000000 -46.702400 -2.403100 2.376200 -47.998402 3.754500 -7.645300 -0.000000 -0.000000 -0.000000 -50.990501 -5.626800 4.763100 -55.563499 7.069300 -9.095500 -0.000000 -0.000000 0.000000 8.404200 2.613200 9.217600 49.913799 -11.216000 3.846600 -3.657300 -1.315100 62.177200 12.281400 8.703000 6.985900 8.346900 0.974700 -9.752100 -0.534900 0.127500 -2.143400 -3.141100 -3.030300 4.239300 24.745199 1.304200 3.128100 41.658100 1.076100 4.634600 -0.000000 -0.000000 0.000000 31.879700 0.974100 3.946600 48.377602 2.759200 6.841200 -0.000000 0.000000 -0.000000 40.608601 0.083300 0.457100 53.511700 4.585700 8.273700 -0.000000 -0.000000 0.000000 46.642502 -2.191000 -1.180200 58.292702 8.509400 10.788500 -0.000000 0.000000 -0.000000 -51.416698 -0.768600 12.804500 43.434700 -20.884100 4.273800 -6.432300 -1.577200 -4.943700 -2.319100 -3.217000 0.803000 -17.521000 -12.549200 -4.342200 35.493698 -20.654499 -2.153300 -14.963200 -3.733200 21.058201 -10.063600 3.366200 0.510000 
